<?xml version="1.0" encoding="utf-8"?>
<!-- Generator: Adobe Illustrator 27.1.1, SVG Export Plug-In . SVG Version: 6.00 Build 0)  -->
<svg version="1.1" id="Layer_1" xmlns="http://www.w3.org/2000/svg" xmlns:xlink="http://www.w3.org/1999/xlink" x="0px" y="0px"
	 viewBox="0 0 1723.95 555.33" style="enable-background:new 0 0 1723.95 555.33;" xml:space="preserve">
<style type="text/css">
	.st0{fill:url(#SVGID_1_);}
	.st1{fill:#1A1A1A;}
	.st2{fill:#FF5900;}
</style>
<linearGradient id="SVGID_1_" gradientUnits="userSpaceOnUse" x1="402.5646" y1="515.9163" x2="122.2656" y2="48.0643">
	<stop  offset="0" style="stop-color:#FF0000"/>
	<stop  offset="1" style="stop-color:#FFAE00"/>
</linearGradient>
<path class="st0" d="M352.82,460.79H201.01l83.33-190.91L93.67,353.45l-0.01-151.8L294.52,0.52C288.94,0.19,283.33,0,277.67,0
	C124.32,0,0,124.32,0,277.67s124.32,277.67,277.67,277.67s277.67-124.32,277.67-277.67c0-6.17-0.22-12.29-0.62-18.37L352.82,460.79z
	"/>
<path class="st1" d="M659.87,181.78v-4.06c0-42.26,26.28-70.98,69.08-70.98c45.78,0,68,31.97,65.83,79.64h-104.3
	c1.36,27.9,14.9,42.8,38.47,42.8c19.51,0,31.15-9.21,35.22-23.3h29.8c-6.77,29.26-30.07,47.14-65.02,47.14
	C685.61,253.03,659.87,224.04,659.87,181.78z M764.17,164.98c-2.17-21.67-13.55-34.68-35.49-34.68c-21.67,0-34.41,11.92-37.66,34.68
	H764.17z"/>
<path class="st1" d="M818.89,249.51V109.99h28.72l0.81,27.09c7.59-17.88,22.21-29.8,42.26-29.8c2.17,0,5.15,0.27,7.59,0.81v28.99
	c-2.71-0.27-5.96-0.54-9.21-0.54c-25.2,0-40.37,14.36-40.37,41.99v70.98H818.89z"/>
<path class="st1" d="M947.83,109.99v139.52h-29.8V109.99H947.83z"/>
<path class="st1" d="M972.21,181.78v-4.06c0-42.26,24.92-70.98,67.46-70.98c34.95,0,57.97,20.59,61.77,52.83h-29.26
	c-2.98-17.61-13.28-28.72-33.05-28.72c-24.11,0-36.57,16.8-36.57,46.87v4.06c0,30.07,12.46,47.14,36.57,47.14
	c19.78,0,30.34-11.65,33.32-29.26h29.53c-4.61,32.78-27.63,53.37-62.58,53.37C997.13,253.03,972.21,224.04,972.21,181.78z"/>
<path class="st1" d="M1190.01,211.85v-79.38h-27.09v-22.49h27.09V66.37h29.8v43.62h37.93v22.49h-37.93v76.13
	c0,13.82,5.15,20.05,21.67,20.05c5.96,0,13-1.35,17.07-2.71v23.84c-6.23,1.9-15.71,3.25-22.76,3.25
	C1205.18,253.03,1190.01,238.94,1190.01,211.85z"/>
<path class="st1" d="M1272.9,181.78v-4.06c0-42.53,27.09-70.98,68.81-70.98c41.99,0,69.08,28.44,69.08,70.98v4.06
	c0,42.53-27.09,71.25-69.08,71.25C1299.99,253.03,1272.9,224.31,1272.9,181.78z M1380.45,181.78v-4.06
	c0-30.07-13.28-46.87-38.74-46.87c-25.2,0-38.47,16.8-38.47,46.87v4.06c0,30.07,13.27,47.14,38.47,47.14
	C1367.17,228.92,1380.45,211.85,1380.45,181.78z"/>
<path class="st1" d="M1429.75,181.78v-4.06c0-41.45,22.76-70.98,59.6-70.98c22.21,0,37.38,10.57,45.51,23.57V49.03h29.8v200.47
	h-27.63l-0.81-23.3c-6.77,13.28-22.49,26.82-46.32,26.82C1453.31,253.03,1429.75,223.5,1429.75,181.78z M1535.94,181.78v-4.06
	c0-30.07-13.82-47.41-38.47-47.41c-23.84,0-37.39,17.34-37.39,47.41v4.06c0,29.8,13.28,47.14,37.39,47.14
	C1522.4,228.92,1535.94,211.85,1535.94,181.78z"/>
<path class="st1" d="M1589.03,181.78v-4.06c0-41.45,22.76-70.98,59.6-70.98c22.22,0,37.39,10.57,45.51,23.57V49.03h29.8v200.47
	h-27.63l-0.81-23.3c-6.77,13.28-22.49,26.82-46.32,26.82C1612.6,253.03,1589.03,223.5,1589.03,181.78z M1695.23,181.78v-4.06
	c0-30.07-13.82-47.41-38.47-47.41c-23.84,0-37.39,17.34-37.39,47.41v4.06c0,29.8,13.28,47.14,37.39,47.14
	C1681.68,228.92,1695.23,211.85,1695.23,181.78z"/>
<path class="st1" d="M659.87,435.05v-4.06c0-42.26,24.92-70.98,67.46-70.98c34.95,0,57.97,20.59,61.77,52.83h-29.26
	c-2.98-17.61-13.28-28.72-33.05-28.72c-24.11,0-36.57,16.8-36.57,46.87v4.06c0,30.07,12.46,47.14,36.57,47.14
	c19.78,0,30.34-11.65,33.32-29.26h29.53c-4.61,32.78-27.63,53.37-62.58,53.37C684.8,506.3,659.87,477.31,659.87,435.05z"/>
<path class="st1" d="M812.12,502.78V363.26h28.72l0.81,27.09c7.59-17.88,22.21-29.8,42.26-29.8c2.17,0,5.15,0.27,7.59,0.81v28.99
	c-2.71-0.27-5.96-0.54-9.21-0.54c-25.2,0-40.37,14.36-40.37,41.99v70.98H812.12z"/>
<path class="st1" d="M900.97,435.05v-4.06c0-42.26,26.28-70.98,69.08-70.98c45.78,0,68,31.97,65.83,79.64h-104.3
	c1.36,27.9,14.9,42.8,38.47,42.8c19.51,0,31.16-9.21,35.22-23.3h29.8c-6.77,29.26-30.07,47.14-65.02,47.14
	C926.71,506.3,900.97,477.31,900.97,435.05z M1005.27,418.25c-2.17-21.67-13.55-34.68-35.49-34.68c-21.67,0-34.41,11.92-37.66,34.68
	H1005.27z"/>
<path class="st1" d="M1053.21,465.12c0-22.21,13.55-36.84,37.39-40.09l54.99-8.13v-10.02c0-15.44-10.57-23.57-28.18-23.57
	c-17.34,0-28.99,7.86-30.34,21.94h-28.45c2.44-28.72,25.2-45.24,59.33-45.24c36.03,0,56.35,18.96,56.35,47.95v94.82h-27.36
	l-1.09-21.67c-8.67,15.71-25.74,25.2-45.78,25.2C1071.36,506.3,1053.21,488.96,1053.21,465.12z M1145.59,451.57v-12.73l-44.7,6.23
	c-12.73,1.9-18.69,7.86-18.69,18.69c0,11.65,8.94,18.96,24.65,18.96C1127.71,482.73,1145.59,469.73,1145.59,451.57z"/>
<path class="st1" d="M1215.48,465.12v-79.38h-27.09v-22.49h27.09v-43.62h29.8v43.62h37.93v22.49h-37.93v76.13
	c0,13.82,5.15,20.05,21.67,20.05c5.96,0,13.01-1.35,17.07-2.71v23.84c-6.23,1.9-15.71,3.25-22.76,3.25
	C1230.65,506.3,1215.48,492.21,1215.48,465.12z"/>
<path class="st1" d="M1336.84,363.26v139.52h-29.8V363.26H1336.84z"/>
<path class="st1" d="M1406.73,502.78l-51.74-139.52h31.43l37.38,109.18l36.84-109.18h30.61l-51.47,139.52H1406.73z"/>
<path class="st1" d="M1497.21,435.05v-4.06c0-42.26,26.28-70.98,69.08-70.98c45.78,0,68,31.97,65.83,79.64h-104.3
	c1.36,27.9,14.9,42.8,38.47,42.8c19.51,0,31.16-9.21,35.22-23.3h29.8c-6.77,29.26-30.07,47.14-65.02,47.14
	C1522.94,506.3,1497.21,477.31,1497.21,435.05z M1601.51,418.25c-2.17-21.67-13.55-34.68-35.49-34.68
	c-21.67,0-34.41,11.92-37.66,34.68H1601.51z"/>
<path class="st2" d="M948.64,89.67h-31.15V49.03h31.15V89.67z"/>
<path class="st2" d="M1337.65,342.94h-31.15v-40.63h31.15V342.94z"/>
</svg>
